<?xml version="1.0" encoding="iso-8859-1"?>
<!-- Generator: Adobe Illustrator 19.0.0, SVG Export Plug-In . SVG Version: 6.00 Build 0)  -->
<svg version="1.1" id="Capa_1" xmlns="http://www.w3.org/2000/svg" xmlns:xlink="http://www.w3.org/1999/xlink" x="0px" y="0px"
	 viewBox="0 0 512.001 512.001" style="enable-background:new 0 0 512.001 512.001;" xml:space="preserve">
<g>
	<path style="fill:#FEDB41;" d="M385.335,15.104v102.325l-8.403,17.405h-17.405l-88.223-49.514l-2.101-3.301
		c1.201-2.402,2.402-4.802,3.901-7.202c20.705-36.009,59.416-60.015,103.828-60.015C379.633,14.804,382.633,14.804,385.335,15.104z"
		/>
	<path style="fill:#FEDB41;" d="M385.335,165.143v89.423c-2.702,0.3-5.702,0.3-8.403,0.3c-44.41,0-83.122-24.006-103.828-60.015
		c-1.8-3.002-3.601-6.303-4.8-9.602l87.622-44.712l21.005-5.701L385.335,165.143z"/>
</g>
<path style="fill:#FE9923;" d="M496.963,134.835c0,21.905-6.002,42.31-16.203,60.015c-2.101,3.901-4.502,7.502-7.204,11.103
	l-83.12-51.013l-13.503-20.104l16.804-19.506l83.422-46.212c1.5,1.8,2.7,3.901,3.601,5.701
	C490.961,92.523,496.963,112.928,496.963,134.835z"/>
<path style="fill:#FD3018;" d="M350.825,449.215C209.788,421.609,210.089,329.684,210.089,233.66v-7.802
	c0-28.207-11.103-54.915-31.207-74.42c-2.402-2.7-5.102-5.1-7.802-7.202c-7.502-6.301-19.205-3.601-23.407,6.603
	c-6.601,17.704-23.405,29.708-42.01,30.008c-0.3,0-0.3,0-0.601,0c-18.605,0-35.709-11.703-42.012-29.109
	c-3.601-9.302-14.403-12.903-23.105-6.901c-0.601,0-7.502,6.601-7.802,7.202c-1.5,1.199-2.702,2.702-4.201,4.201
	C9.938,176.646,0.034,203.352,0.034,230.96c0,72.318,40.509,152.539,105.628,208.055c0.599,0.599,1.5,1.199,2.101,1.8
	c74.118,61.215,162.041,81.62,242.762,66.316c14.403-2.7,24.606-14.403,24.606-28.806
	C375.131,463.62,364.927,451.616,350.825,449.215z"/>
<path style="fill:#32D736;" d="M148.573,22.005c-17.706,35.409-28.507,70.619-28.507,113.83c0,8.101-6.303,14.704-14.403,15.004
	c-0.3,0-0.3,0-0.601,0c-8.403,0-15.004-6.603-15.004-15.004c0-33.01,5.701-62.216,15.605-89.824
	c4.5-12.602,9.902-24.905,15.903-37.21C125.467,1.299,134.469-1.7,141.67,1.9C149.172,5.801,152.174,14.803,148.573,22.005z"/>
<path style="fill:#FCBF29;" d="M477.157,69.118c-19.805-30.608-53.414-51.313-91.824-54.014c-2.701-0.3-5.702-0.3-8.402-0.3v120.031
	l103.827-60.015L477.157,69.118z"/>
<polygon points="376.932,134.835 376.932,134.835 376.932,134.833 "/>
<path style="fill:#FEA832;" d="M376.932,134.835L273.104,194.85c-1.8-3.002-3.601-6.303-4.8-9.602
	c-7.502-15.304-11.403-32.409-11.403-50.413c0-18.905,4.502-36.911,12.302-52.814c1.201-2.402,2.402-4.802,3.901-7.202
	L376.932,134.835z"/>
<path style="fill:#FCBF29;" d="M480.759,194.85c-2.101,3.901-4.502,7.502-7.204,11.103c-20.104,27.606-51.912,46.211-88.221,48.613
	c-2.702,0.3-5.702,0.3-8.403,0.3V134.835L480.759,194.85z"/>
<path style="fill:#10BB67;" d="M105.663,150.839V46.011c4.5-12.602,9.902-24.905,15.903-37.21C125.467,1.299,134.469-1.7,141.67,1.9
	c7.502,3.901,10.504,12.903,6.903,20.104c-17.706,35.409-28.507,70.619-28.507,113.83
	C120.065,143.936,113.763,150.539,105.663,150.839z"/>
<path style="fill:#E61E14;" d="M375.131,478.323c0,14.403-10.204,26.107-24.606,28.806c-80.721,15.304-168.643-5.1-242.762-66.316
	c-0.601-0.601-1.501-1.201-2.101-1.8V180.847c18.605-0.3,35.409-12.304,42.01-30.008c4.201-10.204,15.905-12.903,23.407-6.603
	c2.7,2.101,5.401,4.502,7.802,7.202c20.104,19.506,31.207,46.213,31.207,74.42v7.802c0,96.024-0.3,187.947,140.736,215.555
	C364.927,451.616,375.131,463.62,375.131,478.323z"/>
<path style="fill:#10BB67;" d="M494.261,68.217c-1.8-3.301-3.601-6.301-4.5-7.202C466.955,25.907,428.245,3.3,386.834,0.3
	C383.832,0,380.232,0,376.932,0c-48.011,0-93.023,25.607-116.43,67.017c-1.8,2.7-3.301,5.401-4.8,8.401
	c-9.004,18.306-13.805,39.011-13.805,59.416s4.502,39.61,12.302,55.513c1.501,4.201,3.901,8.403,6.002,12.004
	c23.707,41.711,68.719,67.517,116.73,67.517c3.301,0,6.901,0,9.302-0.3c39.911-2.702,75.921-22.506,99.326-54.614
	c3.301-4.201,6.002-8.401,8.103-12.602c12.002-20.705,18.305-44.112,18.305-67.517C511.966,111.428,505.664,88.023,494.261,68.217z
	 M467.556,187.648c-1.8,3.301-3.601,6.301-6.002,9.6c-18.305,24.907-46.512,40.211-77.721,42.312c-1.8,0.3-3.601,0.3-5.401,0.3h-1.5
	c-38.411-0.3-72.02-20.405-90.924-52.814c-1.5-2.101-2.7-4.502-4.2-8.403c-6.603-13.502-9.904-28.207-9.904-43.81
	c0-15.905,3.601-31.808,10.803-46.213c0.901-1.8,1.8-3.901,3.301-6.301c18.607-32.409,52.514-51.914,90.924-52.514h1.199
	c1.8,0,3.901,0,6.303,0.3c32.409,2.4,62.417,19.804,81.322,48.613c0.298,0.3,0.899,1.199,2.101,3.601
	c9.302,16.203,14.103,34.209,14.103,52.514S477.158,171.143,467.556,187.648z"/>
<path style="fill:#0CA656;" d="M511.966,134.835c0,23.405-6.303,46.812-18.305,67.517c-2.101,4.201-4.802,8.401-8.103,12.602
	c-23.405,32.108-59.414,51.912-99.326,54.614c-2.402,0.3-6.002,0.3-9.302,0.3v-30.008h1.5c1.8,0,3.601,0,5.401-0.3
	c31.209-2.101,59.416-17.405,77.721-42.312c2.402-3.301,4.201-6.301,6.002-9.6c9.602-16.505,14.403-34.51,14.403-52.814
	s-4.8-36.31-14.103-52.514c-1.201-2.402-1.802-3.301-2.101-3.601c-18.905-28.808-48.913-46.213-81.322-48.613
	c-2.402-0.3-4.502-0.3-6.303-0.3h-1.199V0c3.301,0,6.901,0,9.904,0.3c41.411,3,80.12,25.607,102.927,60.715
	c0.899,0.901,2.7,3.901,4.5,7.202C505.664,88.023,511.966,111.428,511.966,134.835z"/>
<path style="fill:#32D736;" d="M178.882,151.438c-7.802,34.81-38.711,59.116-73.219,59.416c-0.3,0-0.3,0-0.601,0
	c-34.51,0-65.116-24.006-72.919-58.816c0.3-0.601,7.202-7.202,7.802-7.202c19.504-16.804,42.911-24.306,65.717-24.306
	c23.705,0.3,47.112,8.701,65.417,23.705C173.778,146.337,176.48,148.738,178.882,151.438z"/>
<path style="fill:#10BB67;" d="M178.882,151.438c-7.802,34.81-38.711,59.116-73.219,59.416v-90.323
	c23.705,0.3,47.112,8.701,65.417,23.705C173.778,146.337,176.48,148.738,178.882,151.438z"/>
<g>
</g>
<g>
</g>
<g>
</g>
<g>
</g>
<g>
</g>
<g>
</g>
<g>
</g>
<g>
</g>
<g>
</g>
<g>
</g>
<g>
</g>
<g>
</g>
<g>
</g>
<g>
</g>
<g>
</g>
</svg>
